<svg version="1.1" xmlns="http://www.w3.org/2000/svg" viewBox="0 0 1063 906" width="1063" height="906">
  <!-- svg-source:excalidraw -->
  
  <defs>
    <style>
      @font-face {
        font-family: "Virgil";
        src: url("https://unpkg.com/@excalidraw/excalidraw@0.13.0-4d26993/dist/excalidraw-assets/Virgil.woff2");
      }
      @font-face {
        font-family: "Cascadia";
        src: url("https://unpkg.com/@excalidraw/excalidraw@0.13.0-4d26993/dist/excalidraw-assets/Cascadia.woff2");
      }
    </style>
  </defs>
  <rect x="0" y="0" width="1063" height="906" fill="#f8f9fa"></rect><g transform="translate(690 551) rotate(0 56 25)"><text x="0" y="18" font-family="Virgil, Segoe UI Emoji" font-size="20px" fill="#000000" text-anchor="start" style="white-space: pre;" direction="ltr">Persistence</text><text x="0" y="43" font-family="Virgil, Segoe UI Emoji" font-size="20px" fill="#000000" text-anchor="start" style="white-space: pre;" direction="ltr">(database)</text></g><g stroke-linecap="round" transform="translate(678 534.5) rotate(0 68 41.5)"><path d="M1.38 0.77 C31.04 2.24, 61.73 1.29, 135.4 -1.08 M-0.97 -0.79 C28.02 0.36, 54.83 0.21, 135.62 -0.41 M137.42 -0.84 C136.94 33.4, 135.58 64.51, 137.42 81.65 M135.59 -0.86 C136.94 28.86, 136.38 56.3, 136.85 82.83 M134.82 81.29 C107.8 84.05, 80.71 84.72, -1.38 82.91 M136.82 82.22 C85.9 83.65, 36.3 83.67, 0.9 83.18 M1.61 82.86 C0.68 61.52, -0.71 41.39, -0.89 -1.58 M-0.36 83.54 C0.83 49.51, 0.84 18.15, 0.93 0.67" stroke="#000000" stroke-width="1" fill="none"></path></g><g transform="translate(378 550.5) rotate(0 65 25)"><text x="0" y="18" font-family="Virgil, Segoe UI Emoji" font-size="20px" fill="#000000" text-anchor="start" style="white-space: pre;" direction="ltr">Interface</text><text x="0" y="43" font-family="Virgil, Segoe UI Emoji" font-size="20px" fill="#000000" text-anchor="start" style="white-space: pre;" direction="ltr">(http server)</text></g><g stroke-linecap="round" transform="translate(366 534) rotate(0 75 41.5)"><path d="M-1.65 -1.25 C55.12 -1, 112.56 1.75, 148.72 -1.53 M-0.9 0.31 C39.89 0.48, 79.78 -0.16, 150.49 -0.97 M150.16 1.53 C151.49 26.7, 151.24 48.26, 149.3 84.18 M149.88 0.36 C150.39 21.69, 150.69 40.73, 150.31 83.23 M149.9 83.57 C94.12 84.39, 38.88 82.3, 1.17 83.34 M150.08 83.19 C113.43 81.27, 77.4 80.92, 0.12 82.57 M-1.53 83.53 C0.92 60.99, 0.93 37.67, -1.39 0.64 M0.79 83.15 C-1.18 57.43, 0.39 32.27, -0.69 0.17" stroke="#000000" stroke-width="1" fill="none"></path></g><g transform="translate(978 561) rotate(0 28 12.5)"><text x="0" y="18" font-family="Virgil, Segoe UI Emoji" font-size="20px" fill="#000000" text-anchor="start" style="white-space: pre;" direction="ltr">sqlite</text></g><g stroke-linecap="round" transform="translate(959 526.5) rotate(0 47 47)"><path d="M67.48 4.49 C74.98 7.27, 82.69 15.19, 87.18 22.45 C91.68 29.7, 94.64 39.3, 94.47 48.04 C94.29 56.78, 90.93 67.67, 86.12 74.87 C81.32 82.07, 73.62 88.18, 65.62 91.24 C57.62 94.3, 46.51 94.78, 38.14 93.24 C29.77 91.71, 21.61 87.79, 15.4 82.03 C9.2 76.27, 3.06 66.92, 0.91 58.67 C-1.25 50.43, -0.17 40.73, 2.48 32.56 C5.12 24.39, 10.13 15.17, 16.79 9.64 C23.45 4.12, 33.14 -0.17, 42.43 -0.6 C51.73 -1.02, 67.21 5.38, 72.58 7.07 C77.94 8.77, 75.1 9.01, 74.64 9.57 M35.89 0.75 C43.47 -2.19, 53.95 -1.62, 61.86 1.39 C69.78 4.4, 78 11.88, 83.37 18.83 C88.75 25.77, 93.16 34.88, 94.11 43.04 C95.06 51.2, 92.93 60.47, 89.08 67.78 C85.22 75.09, 78.4 82.31, 70.99 86.9 C63.58 91.5, 53.06 95.67, 44.6 95.33 C36.15 94.99, 27.17 90.07, 20.28 84.86 C13.39 79.66, 6.71 72.17, 3.26 64.11 C-0.2 56.04, -1.95 44.76, -0.47 36.48 C1.01 28.21, 5.84 20.25, 12.12 14.45 C18.4 8.66, 33.05 4.01, 37.2 1.72 C41.35 -0.57, 36.91 0.27, 37.04 0.7" stroke="#000000" stroke-width="1" fill="none"></path></g><g stroke-linecap="round"><g transform="translate(529 574.5) rotate(0 68.03594774040391 0.7072163994374137)"><path d="M0.45 -0.61 C23.36 -0.61, 114.38 0.53, 136.85 0.64 M-0.78 1.68 C22.1 1.8, 113.26 2.13, 136.35 1.99" stroke="#000000" stroke-width="1" fill="none"></path></g><g transform="translate(529 574.5) rotate(0 68.03594774040391 0.7072163994374137)"><path d="M107.15 13.68 C114.52 8.4, 120.55 8.1, 135.01 0.53 M108.46 12.31 C113.71 10.11, 119.5 8.97, 136.15 1.38" stroke="#000000" stroke-width="1" fill="none"></path></g><g transform="translate(529 574.5) rotate(0 68.03594774040391 0.7072163994374137)"><path d="M107.14 -6.84 C114.62 -7.02, 120.65 -2.23, 135.01 0.53 M108.45 -8.22 C113.87 -6.01, 119.66 -2.75, 136.15 1.38" stroke="#000000" stroke-width="1" fill="none"></path></g></g><g stroke-linecap="round"><g transform="translate(824 575.5) rotate(0 59.391641820054474 -0.6114178201928553)"><path d="M0.92 -1.11 C20.56 -1.34, 99.31 -0.32, 118.83 -0.36 M-0.05 0.93 C19.32 0.86, 97.72 -1.96, 117.8 -2.15" stroke="#000000" stroke-width="1" fill="none"></path></g><g transform="translate(824 575.5) rotate(0 59.391641820054474 -0.6114178201928553)"><path d="M88.02 8.51 C101.64 2.76, 110.8 1.7, 116.81 -1.91 M89.98 8.51 C99.32 5.47, 108.38 2.11, 117.81 -2.85" stroke="#000000" stroke-width="1" fill="none"></path></g><g transform="translate(824 575.5) rotate(0 59.391641820054474 -0.6114178201928553)"><path d="M87.52 -12.01 C101.51 -9.83, 110.86 -2.95, 116.81 -1.91 M89.48 -12.01 C98.94 -8.61, 108.16 -5.54, 117.81 -2.85" stroke="#000000" stroke-width="1" fill="none"></path></g></g><g transform="translate(22 545.5) rotate(0 73.5 25)"><text x="0" y="18" font-family="Virgil, Segoe UI Emoji" font-size="20px" fill="#000000" text-anchor="start" style="white-space: pre;" direction="ltr">Core</text><text x="0" y="43" font-family="Virgil, Segoe UI Emoji" font-size="20px" fill="#000000" text-anchor="start" style="white-space: pre;" direction="ltr">(business logic)</text></g><g stroke-linecap="round" transform="translate(10 529) rotate(0 87 41.5)"><path d="M0.06 -1.94 C62.27 0.8, 122.68 -0.5, 173.46 -0.88 M-0.87 -0.34 C65.03 -0.78, 130.39 -1.11, 173.96 0.56 M175.7 0.69 C172.95 29.76, 173.56 60.94, 175.91 81.38 M173.67 -0.58 C174.05 24.95, 173.94 50.23, 173.65 82.99 M175.43 83.15 C135.58 84.31, 100.8 84.14, 1.33 82.17 M173.67 83.54 C113.53 82.33, 52.87 82.56, -0.4 83.9 M-0.32 84.62 C-0.87 50.95, -0.47 19.18, -0.51 -1.31 M0.47 82.13 C1.19 53.91, 1.34 25.77, -0.51 0.15" stroke="#000000" stroke-width="1" fill="none"></path></g><g stroke-linecap="round"><g transform="translate(355 568.5) rotate(0 -81.03975631333884 0.308090214895401)"><path d="M0.71 0.76 C-26.3 0.91, -135.56 1.22, -162.79 1.08 M-0.38 0.12 C-26.94 -0.06, -133.26 -0.65, -160.49 -0.47" stroke="#000000" stroke-width="1" fill="none"></path></g><g transform="translate(355 568.5) rotate(0 -81.03975631333884 0.308090214895401)"><path d="M-131.02 -12.03 C-137.21 -9.2, -145.89 -4.74, -160.95 -1.92 M-132.96 -11.38 C-139.45 -8.68, -146.12 -5.24, -160.34 -0.73" stroke="#000000" stroke-width="1" fill="none"></path></g><g transform="translate(355 568.5) rotate(0 -81.03975631333884 0.308090214895401)"><path d="M-131.03 8.49 C-137.25 6.41, -145.93 5.96, -160.95 -1.92 M-132.97 9.14 C-139.61 6.93, -146.28 5.46, -160.34 -0.73" stroke="#000000" stroke-width="1" fill="none"></path></g></g><g transform="translate(402 829.5) rotate(0 40.5 25)"><text x="0" y="18" font-family="Virgil, Segoe UI Emoji" font-size="20px" fill="#000000" text-anchor="start" style="white-space: pre;" direction="ltr">Schemas</text><text x="0" y="43" font-family="Virgil, Segoe UI Emoji" font-size="20px" fill="#000000" text-anchor="start" style="white-space: pre;" direction="ltr">(zod)</text></g><g stroke-linecap="round" transform="translate(390 813) rotate(0 51 41.5)"><path d="M-0.47 -0.97 C40.62 -0.72, 79.5 1.81, 102.75 -0.87 M-0.34 0.23 C41.17 1.34, 82.32 0.58, 102.67 0 M102.86 -1.9 C104.07 32.8, 102.6 62.93, 103.41 83.93 M102.33 0.86 C101.64 31.18, 102.35 63.14, 102.51 83.19 M102.1 82.27 C77.88 85.2, 57.47 83.9, 1.53 81.96 M102.15 83.06 C65.57 82.42, 26.45 82.43, 0.66 82.67 M-1.47 84.96 C2.01 57.31, 1.94 35.5, -0.96 1.41 M0.23 82.66 C0.05 50.42, -0.59 17.48, 0.89 0.63" stroke="#000000" stroke-width="1" fill="none"></path></g><g stroke-linecap="round"><g transform="translate(438 631.5) rotate(0 0.7639317468397167 82.65489032598214)"><path d="M0.9 -1.01 C1.2 26.71, 1.71 137.25, 1.6 165.2 M-0.09 1.08 C0.13 29.03, 0.5 139.05, 0.97 166.32" stroke="#000000" stroke-width="1" fill="none"></path></g><g transform="translate(438 631.5) rotate(0 0.7639317468397167 82.65489032598214)"><path d="M-11.23 139.23 C-8.21 144.74, -2.78 151.98, 0.56 164.94 M-10.49 137.3 C-6.37 148.89, -1.61 158.33, 0.31 166.84" stroke="#000000" stroke-width="1" fill="none"></path></g><g transform="translate(438 631.5) rotate(0 0.7639317468397167 82.65489032598214)"><path d="M9.29 139.04 C6.57 144.75, 6.26 152.05, 0.56 164.94 M10.03 137.11 C6.53 148.72, 3.68 158.24, 0.31 166.84" stroke="#000000" stroke-width="1" fill="none"></path></g></g><g stroke-linecap="round"><g transform="translate(745 631.5) rotate(0 -120.47158946122977 111.99511697914448)"><path d="M-0.73 0.3 C-11.56 24.44, -25.85 107.24, -66.04 144.44 C-106.23 181.64, -212.3 210.13, -241.87 223.51 M1.09 -0.58 C-9.29 23.74, -23.35 108.15, -63.87 145.68 C-104.39 183.21, -212.11 211.77, -242.04 224.57" stroke="#000000" stroke-width="1" fill="none"></path></g><g transform="translate(745 631.5) rotate(0 -120.47158946122977 111.99511697914448)"><path d="M-218.39 203.76 C-224.83 211.31, -229.65 212.78, -240.85 226.33 M-218.68 205.72 C-225.9 210, -231 215.94, -242.83 224.02" stroke="#000000" stroke-width="1" fill="none"></path></g><g transform="translate(745 631.5) rotate(0 -120.47158946122977 111.99511697914448)"><path d="M-211.53 223.1 C-219.38 226.48, -225.66 223.83, -240.85 226.33 M-211.83 225.06 C-221.02 224.21, -227.97 224.96, -242.83 224.02" stroke="#000000" stroke-width="1" fill="none"></path></g></g><g stroke-linecap="round"><g transform="translate(96 625.5) rotate(0 139.65962626002727 114.0191977772862)"><path d="M0.01 -0.95 C9.04 26.32, 8.16 124.8, 54.71 163.13 C101.26 201.45, 241.72 217.92, 279.31 228.99" stroke="#000000" stroke-width="1.5" fill="none" stroke-dasharray="8 9"></path></g><g transform="translate(96 625.5) rotate(0 139.65962626002727 114.0191977772862)"><path d="M248.02 234.39 C261.63 230.63, 268.19 230.81, 278.58 230.56" stroke="#000000" stroke-width="1.5" fill="none"></path></g><g transform="translate(96 625.5) rotate(0 139.65962626002727 114.0191977772862)"><path d="M252.26 214.31 C264.33 217.39, 269.45 224.41, 278.58 230.56" stroke="#000000" stroke-width="1.5" fill="none"></path></g></g><g transform="translate(76 807.5) rotate(0 54 12.5)"><text x="0" y="18" font-family="Virgil, Segoe UI Emoji" font-size="20px" fill="#000000" text-anchor="start" style="white-space: pre;" direction="ltr">Only Types</text></g><g transform="translate(378 262.5) rotate(0 60.5 25)"><text x="0" y="18" font-family="Virgil, Segoe UI Emoji" font-size="20px" fill="#000000" text-anchor="start" style="white-space: pre;" direction="ltr">Fetch</text><text x="0" y="43" font-family="Virgil, Segoe UI Emoji" font-size="20px" fill="#000000" text-anchor="start" style="white-space: pre;" direction="ltr">(http client)</text></g><g stroke-linecap="round" transform="translate(366 246) rotate(0 73 41.5)"><path d="M-1.94 -0.41 C31.27 2.47, 62.11 1.86, 144.07 -1.43 M0.81 -0.99 C53.92 1.05, 109.09 1.24, 145.55 -0.05 M146.96 1.01 C144.57 22.6, 145.37 42.42, 147.68 83.68 M145.81 -0.24 C146.26 18.66, 146.55 36.59, 146.54 83.5 M144.28 82.18 C86.61 82.82, 31.64 83.12, -0.82 84.76 M145.93 82.16 C95.97 82.46, 48.15 82, -0.68 82.11 M-1.72 83.13 C1.62 52.35, -1.5 22.82, -1.44 0.18 M-0.43 83.04 C-1.43 62.39, -0.48 43.7, -0.3 -0.62" stroke="#000000" stroke-width="1" fill="none"></path></g><g stroke-linecap="round"><g transform="translate(438 341.5) rotate(0 0.17607557438316235 89.24405104853216)"><path d="M-0.42 -0.98 C-0.31 29.03, 0.74 149.3, 0.78 179.47" stroke="#000000" stroke-width="1.5" fill="none" stroke-dasharray="8 9"></path></g><g transform="translate(438 341.5) rotate(0 0.17607557438316235 89.24405104853216)"><path d="M-11.27 152.63 C-5.81 159.64, -1.69 168.65, -0.07 180.91" stroke="#000000" stroke-width="1.5" fill="none"></path></g><g transform="translate(438 341.5) rotate(0 0.17607557438316235 89.24405104853216)"><path d="M9.25 152.51 C8.44 159.49, 6.29 168.53, -0.07 180.91" stroke="#000000" stroke-width="1.5" fill="none"></path></g></g><g transform="translate(398 26.5) rotate(0 41.5 25)"><text x="0" y="18" font-family="Virgil, Segoe UI Emoji" font-size="20px" fill="#000000" text-anchor="start" style="white-space: pre;" direction="ltr">Web</text><text x="0" y="43" font-family="Virgil, Segoe UI Emoji" font-size="20px" fill="#000000" text-anchor="start" style="white-space: pre;" direction="ltr">(next.js)</text></g><g stroke-linecap="round" transform="translate(386 10) rotate(0 52 41.5)"><path d="M1.52 1.14 C24.72 0.66, 48.42 -0.63, 102.84 -1.54 M0.3 0.74 C26.82 0.04, 53.73 -0.95, 103.8 0.16 M104.62 0.15 C105.12 25.1, 103.78 51.97, 105.65 84.13 M104.62 0.62 C103.82 21.89, 105.64 42.85, 104.62 82.66 M105.83 83.16 C71.28 84.11, 37.85 82.23, -0.36 82.97 M104.9 83.09 C73.29 83.84, 41.91 83.88, 0.27 83.89 M-0.09 82.52 C0.61 63.26, -1.43 44.72, 0.75 -0.71 M0.66 82.64 C0.15 51.18, 0.53 18.42, -0.52 -0.14" stroke="#000000" stroke-width="1" fill="none"></path></g><g stroke-linecap="round"><g transform="translate(434 103.5) rotate(0 1.121255018067302 64.22356620069591)"><path d="M-0.5 0.78 C-0.63 21.85, 0.15 105.83, 0.35 127.2 M1.43 0.14 C1.6 21.28, 3 107.14, 2.73 128.31" stroke="#000000" stroke-width="1" fill="none"></path></g><g transform="translate(434 103.5) rotate(0 1.121255018067302 64.22356620069591)"><path d="M-6.35 99.08 C-4.72 110.8, 2.35 120.92, 3.65 128.37 M-7.43 100.71 C-3.63 110.26, 0.78 120.21, 1.82 129.08" stroke="#000000" stroke-width="1" fill="none"></path></g><g transform="translate(434 103.5) rotate(0 1.121255018067302 64.22356620069591)"><path d="M14.17 99 C7.71 110.67, 6.7 120.81, 3.65 128.37 M13.09 100.63 C9.32 110.19, 6.16 120.18, 1.82 129.08" stroke="#000000" stroke-width="1" fill="none"></path></g></g></svg>